<?xml version="1.0" standalone="no"?>
<!DOCTYPE svg PUBLIC "-//W3C//DTD SVG 20010904//EN"
 "http://www.w3.org/TR/2001/REC-SVG-20010904/DTD/svg10.dtd">
<svg version="1.0" xmlns="http://www.w3.org/2000/svg"
 width="1378.000000pt" height="1066.000000pt" viewBox="0 0 1378.000000 1066.000000"
 preserveAspectRatio="xMidYMid meet">

<g transform="translate(0.000000,1066.000000) scale(0.100000,-0.100000)"
fill="#000000" stroke="none">
<path d="M9072 8576 c-46 -19 -86 -36 -89 -40 -3 -3 1 -29 10 -57 28 -84 17
-168 -31 -249 -14 -25 -25 -48 -24 -53 1 -4 -1 -6 -5 -5 -5 1 -21 -6 -36 -16
-22 -15 -25 -21 -15 -28 10 -7 8 -8 -4 -4 -10 3 -39 -4 -65 -16 -58 -25 -160
-27 -216 -4 l-38 16 -20 -47 c-25 -57 -49 -123 -49 -133 0 -4 10 -10 23 -14
13 -3 43 -21 67 -40 24 -19 48 -32 54 -29 5 3 6 1 2 -5 -7 -12 32 -84 42 -78
9 5 16 -53 16 -139 0 -82 -26 -145 -86 -203 -20 -20 -35 -39 -33 -43 3 -4 -1
-6 -8 -6 -23 1 -77 -25 -77 -37 0 -26 49 -131 60 -128 6 1 9 -2 6 -7 -3 -5 -3
-16 0 -25 5 -14 10 -14 41 -1 57 24 168 19 230 -9 51 -24 113 -72 113 -88 0
-4 -1137 -8 -2527 -8 -1948 1 -2536 -2 -2563 -11 -50 -17 -103 -54 -129 -90
-38 -51 -51 -105 -51 -213 l0 -102 -60 -59 c-33 -33 -58 -66 -55 -73 2 -7 1
-11 -4 -8 -12 8 -41 -67 -41 -105 0 -16 7 -45 15 -64 21 -51 77 -115 95 -110
8 3 21 -5 28 -16 8 -12 9 -18 3 -14 -6 3 -11 1 -11 -4 0 -10 14 -15 32 -12 4
0 12 -9 19 -20 8 -16 8 -24 -2 -33 -9 -8 -10 -8 -5 1 4 7 2 21 -3 30 -9 15
-10 13 -11 -14 0 -17 -5 -35 -11 -39 -8 -4 -7 -9 2 -16 11 -8 10 -9 -2 -5 -17
6 -63 -34 -54 -46 3 -4 2 -5 -2 -2 -9 7 -42 -25 -39 -38 2 -7 1 -8 -2 -3 -2 4
-148 -135 -323 -310 -175 -175 -315 -323 -312 -328 3 -6 2 -7 -2 -3 -5 4 -106
-89 -225 -207 l-215 -214 -81 -5 c-50 -3 -99 -13 -127 -25 -61 -27 -133 -95
-165 -157 -24 -44 -27 -61 -27 -150 0 -86 3 -107 24 -150 21 -41 131 -168 131
-150 0 3 12 -1 28 -9 53 -27 136 -38 204 -26 85 15 119 32 176 89 69 69 94
127 100 231 l4 85 114 115 c63 64 111 120 107 125 -4 4 -3 5 3 2 14 -8 327
306 317 318 -4 4 -3 5 3 2 14 -8 207 186 197 198 -4 4 -3 5 3 2 6 -3 44 28 84
68 41 41 78 75 82 75 5 0 8 -608 8 -1350 l0 -1350 3238 2 3237 3 0 1995 c-1
1866 -2 1997 -18 2032 -37 80 -107 137 -194 157 -37 9 -37 9 -7 10 19 1 40 11
55 27 76 82 221 111 330 66 25 -10 28 -8 44 28 17 38 13 66 -7 54 -7 -4 -8 -2
-4 5 6 9 11 9 21 1 10 -8 15 -4 23 17 5 15 13 36 17 45 5 13 -3 22 -35 38
-175 89 -224 318 -101 470 20 24 35 48 34 51 -1 4 3 6 10 6 9 -1 55 18 95 39
4 2 -23 74 -50 136 l-21 46 -39 -14 c-22 -8 -54 -15 -72 -16 -17 -1 -40 -9
-51 -17 -18 -15 -19 -15 -6 2 12 15 11 17 -17 17 -16 0 -46 7 -65 15 -20 8
-42 13 -49 12 -7 -2 -10 -2 -7 0 3 2 -19 30 -51 62 -45 47 -60 70 -73 118 -21
73 -21 125 -2 189 8 27 15 50 15 50 1 8 -62 24 -71 18 -7 -4 -10 -3 -6 3 4 6
-10 18 -33 27 -52 21 -69 20 -77 -1 -4 -10 -19 -37 -34 -59 -16 -23 -25 -45
-21 -49 4 -5 1 -5 -6 -1 -8 5 -22 0 -35 -12 -42 -39 -114 -64 -187 -64 -123 0
-226 65 -277 173 l-18 38 -83 -33z m555 -442 c-3 -3 -12 -4 -19 -1 -8 3 -5 6
6 6 11 1 17 -2 13 -5z m-42 -39 c28 -8 72 -28 98 -45 27 -17 54 -27 60 -24 7
4 9 4 5 -1 -5 -5 14 -32 41 -60 194 -205 167 -516 -61 -696 -26 -20 -45 -39
-42 -43 2 -3 1 -4 -2 -2 -3 2 -29 -4 -59 -15 -135 -47 -264 -42 -381 16 -119
58 -194 146 -241 279 -46 131 -19 304 64 413 27 36 32 48 21 54 -10 7 -10 9 0
9 6 0 13 -1 15 -2 1 -1 32 19 68 44 60 41 150 79 219 92 38 7 139 -3 195 -19z
m239 -134 c-2 -3 -12 3 -22 13 -16 17 -16 18 5 5 12 -7 20 -15 17 -18z m-1279
-621 c3 -6 -1 -7 -9 -4 -18 7 -21 14 -7 14 6 0 13 -4 16 -10z m1795 -135 c0
-9 -9 -15 -22 -14 -17 1 -19 2 -5 6 9 2 17 9 17 14 0 5 2 9 5 9 3 0 5 -7 5
-15z m-1077 -112 c-56 -2 -151 -2 -210 0 -59 1 -13 3 102 3 116 0 164 -2 108
-3z m270 0 c-13 -2 -35 -2 -50 0 -16 2 -5 4 22 4 28 0 40 -2 28 -4z m105 0
c-10 -2 -28 -2 -40 0 -13 2 -5 4 17 4 22 1 32 -1 23 -4z m205 0 c-29 -2 -78
-2 -110 0 -32 2 -8 3 52 3 61 0 87 -1 58 -3z m-5633 -17 c0 -2 -9 -6 -20 -9
-11 -3 -18 -1 -14 4 5 9 34 13 34 5z m-143 -37 c-21 -17 -37 -39 -38 -48 0
-10 -3 -11 -5 -4 -6 14 -131 -113 -127 -128 2 -5 -3 -8 -10 -6 -6 1 -11 -5 -9
-13 2 -8 1 -12 -3 -8 -10 10 -66 -43 -58 -55 3 -6 1 -7 -4 -4 -13 8 -37 -18
-29 -31 3 -6 0 -9 -7 -8 -15 1 -82 -54 -90 -75 -4 -11 -6 -11 -6 1 -1 18 391
410 410 410 7 0 -4 -14 -24 -31z m374 -126 l158 -158 2611 3 2610 2 0 -1770 0
-1770 -2915 0 -2915 0 0 1315 c0 1184 2 1315 16 1315 8 0 12 -4 9 -10 -9 -14
8 -12 25 3 12 10 12 9 2 -4 -10 -13 -8 -19 6 -33 10 -9 22 -13 27 -9 4 5 6 3
2 -3 -3 -5 5 -23 17 -39 22 -27 25 -28 42 -15 17 13 18 13 7 -1 -10 -13 -7
-22 23 -53 31 -32 37 -36 52 -24 15 12 16 11 4 -4 -12 -15 -9 -21 20 -50 l33
-33 2 -120 c1 -86 7 -143 22 -199 21 -78 78 -216 90 -216 14 0 1173 1169 1167
1178 -9 15 -152 69 -231 88 -45 11 -110 17 -183 17 l-112 -1 -62 64 c-33 35
-65 61 -70 58 -4 -3 -5 -10 -2 -16 4 -7 2 -8 -5 -4 -8 5 -9 12 -2 20 7 9 -29
51 -133 154 -79 78 -148 142 -153 142 -6 0 -16 7 -23 15 -7 8 -17 12 -23 8 -6
-4 -7 -1 -3 6 9 14 -24 42 -38 34 -5 -4 -6 -1 -2 5 8 13 -63 84 -76 76 -5 -3
-8 -2 -7 3 3 20 -2 34 -11 28 -5 -3 -10 -1 -10 5 0 14 -51 56 -63 52 -5 -1 -6
2 -2 8 12 20 -75 88 -96 74 -8 -4 -9 -3 -5 4 4 7 14 12 23 12 8 0 86 -71 174
-157z m-787 -301 c3 -5 -1 -9 -9 -9 -8 0 -12 4 -9 9 3 4 7 8 9 8 2 0 6 -4 9
-8z m1157 -89 c13 -16 12 -17 -3 -4 -10 7 -18 15 -18 17 0 8 8 3 21 -13z m0
-30 c13 -16 12 -17 -3 -4 -10 7 -18 15 -18 17 0 8 8 3 21 -13z m37 -18 c-3 -3
-9 2 -12 12 -6 14 -5 15 5 6 7 -7 10 -15 7 -18z m-1298 -5 c0 -5 -4 -10 -10
-10 -5 0 -10 5 -10 10 0 6 5 10 10 10 6 0 10 -4 10 -10z m1378 -75 c-3 -3 -9
2 -12 12 -6 14 -5 15 5 6 7 -7 10 -15 7 -18z m58 -61 c1 -7 -5 -15 -13 -18
-10 -4 -13 -1 -8 13 3 11 1 22 -5 26 -5 3 -10 11 -10 16 0 14 34 -21 36 -37z
m-1438 11 c-3 -3 -9 2 -12 12 -6 14 -5 15 5 6 7 -7 10 -15 7 -18z m36 -54 c-5
-6 -34 20 -34 30 0 5 8 1 18 -8 10 -10 17 -20 16 -22z m1352 17 c-9 -5 -22 -7
-29 -4 -7 2 -4 5 6 5 9 1 17 6 17 12 0 5 5 7 11 3 8 -5 6 -10 -5 -16z m-61
-18 c-27 -12 -43 -12 -25 0 8 5 22 9 30 9 10 0 8 -3 -5 -9z m-92 -35 c-71 -32
-180 -104 -225 -148 -21 -20 -38 -33 -38 -29 0 16 85 87 148 124 23 13 40 28
37 31 -3 4 -2 5 1 3 3 -2 29 7 57 20 29 13 57 24 62 23 6 0 -13 -11 -42 -24z
m-1007 -157 c4 -7 3 -10 -1 -5 -5 4 -27 -10 -49 -30 l-41 -38 40 43 c44 48 41
46 51 30z m-132 -25 c-5 -5 -12 -12 -16 -18 -4 -6 -8 -2 -8 8 0 9 7 17 17 17
9 0 12 -3 7 -7z m170 -5 c-3 -4 6 -19 20 -33 14 -13 22 -26 18 -28 -4 -2 -21
13 -39 32 -26 31 -29 37 -13 37 10 0 16 -4 14 -8z m679 -28 c-12 -9 -47 -55
-78 -100 -60 -91 -76 -102 -20 -14 19 30 35 57 35 61 0 3 16 21 35 40 20 19
32 40 29 46 -4 7 -1 7 7 -1 12 -11 11 -16 -8 -32z m-821 -162 l-3 -143 -474
-475 c-374 -375 -473 -478 -465 -490 5 -8 10 -22 9 -30 0 -8 -6 -1 -14 17 -14
33 -101 127 -144 156 -24 16 -21 37 5 37 9 0 12 5 8 12 -4 7 -3 8 5 4 14 -9 5
-26 -15 -26 -9 0 -12 -5 -8 -11 4 -7 25 7 55 37 41 40 46 50 36 63 -10 14 -10
14 4 4 13 -10 22 -6 52 25 21 21 35 41 32 45 -3 4 -2 5 2 2 11 -8 83 67 76 79
-3 6 -2 8 2 3 12 -10 86 63 78 77 -3 6 -2 8 2 3 11 -10 86 63 78 76 -3 6 -2 7
4 4 11 -7 86 66 78 76 -3 4 -2 5 2 2 11 -8 83 67 76 79 -3 6 -2 8 2 3 12 -10
86 63 78 77 -3 6 -2 8 2 3 11 -10 86 63 78 76 -3 6 -2 7 4 4 11 -7 86 66 78
76 -3 4 -2 5 2 2 11 -8 83 67 76 79 -3 6 -2 8 2 3 5 -4 26 9 47 30 31 30 35
39 25 52 -10 14 -10 14 4 3 14 -11 24 -4 70 47 30 33 54 60 54 60 0 1 -1 -63
-3 -141z m209 105 c13 -16 12 -17 -3 -4 -10 7 -18 15 -18 17 0 8 8 3 21 -13z
m-258 -8 c-3 -9 -8 -14 -10 -11 -3 3 -2 9 2 15 9 16 15 13 8 -4z m285 -16
c-10 -5 -15 -17 -12 -27 4 -10 3 -13 -3 -6 -5 8 -20 -1 -45 -26 -20 -21 -35
-41 -32 -44 2 -3 1 -4 -3 -1 -8 6 -39 -37 -35 -48 1 -5 -2 -5 -8 -2 -11 6 -75
-59 -75 -76 0 -14 -13 -20 -20 -9 -7 11 221 250 239 250 6 0 3 -5 -6 -11z
m-421 -41 c-3 -8 -6 -5 -6 6 -1 11 2 17 5 13 3 -3 4 -12 1 -19z m-40 -43 c0
-8 -4 -12 -9 -9 -5 3 -6 10 -3 15 9 13 12 11 12 -6z m503 12 c0 -2 -12 -14
-27 -28 l-28 -24 24 28 c23 25 31 32 31 24z m-519 -34 c13 -16 12 -17 -3 -4
-10 7 -18 15 -18 17 0 8 8 3 21 -13z m-41 -27 c0 -2 -8 -10 -17 -17 -16 -13
-17 -12 -4 4 13 16 21 21 21 13z m500 1 c0 -2 -17 -19 -37 -38 -20 -18 -31
-25 -23 -14 20 26 60 61 60 52z m448 -28 c-6 -16 -12 -28 -14 -26 -5 5 13 57
20 57 3 0 0 -14 -6 -31z m-984 -25 c3 -8 2 -12 -4 -9 -6 3 -10 10 -10 16 0 14
7 11 14 -7z m-25 -6 c0 -7 -14 -24 -32 -38 l-32 -25 30 37 c34 42 35 42 34 26z
m982 -44 c-5 -16 -10 -21 -10 -12 -1 18 10 51 15 45 2 -1 -1 -16 -5 -33z
m-536 -14 c-21 -22 -42 -40 -47 -40 -4 0 11 18 33 40 22 22 43 40 47 40 3 0
-12 -18 -33 -40z m-445 26 c0 -2 -8 -10 -17 -17 -16 -13 -17 -12 -4 4 13 16
21 21 21 13z m-64 -38 c4 -7 3 -8 -4 -4 -7 4 -12 0 -12 -10 0 -10 -3 -15 -6
-11 -7 6 2 37 10 37 3 0 8 -5 12 -12z m1034 -18 c0 -5 -5 -10 -11 -10 -5 0 -7
5 -4 10 3 6 8 10 11 10 2 0 4 -4 4 -10z m-603 -37 c2 -5 -6 -18 -17 -28 -18
-16 -20 -17 -14 -2 3 9 10 17 15 17 5 0 9 5 9 11 0 5 -4 8 -9 4 -5 -3 -12 -1
-15 4 -4 5 2 8 11 7 9 -2 18 -7 20 -13z m588 -23 c-9 -41 -17 -33 -9 9 4 17 9
30 11 27 3 -2 2 -19 -2 -36z m-1131 -32 c-18 -20 -18 -21 -1 -15 11 4 16 3 12
-4 -4 -6 -13 -8 -20 -5 -7 2 -19 -1 -26 -7 -8 -7 -1 3 15 21 17 17 32 32 34
32 3 0 -3 -10 -14 -22z m486 8 c0 -2 -8 -10 -17 -17 -16 -13 -17 -12 -4 4 13
16 21 21 21 13z m-93 -28 c-3 -8 -6 -5 -6 6 -1 11 2 17 5 13 3 -3 4 -12 1 -19z
m63 -12 c0 -3 -4 -8 -10 -11 -5 -3 -10 -1 -10 4 0 6 5 11 10 11 6 0 10 -2 10
-4z m-530 -46 c-24 -15 -36 -11 -14 4 10 8 21 12 24 10 2 -3 -2 -9 -10 -14z
m5 -20 c-3 -5 -12 -10 -18 -10 -7 0 -6 4 3 10 19 12 23 12 15 0z m40 1 c3 -5
2 -12 -3 -15 -5 -3 -9 1 -9 9 0 17 3 19 12 6z m398 -16 c-3 -9 -8 -14 -10 -11
-3 3 -2 9 2 15 9 16 15 13 8 -4z m-533 -49 c0 -2 -8 -10 -17 -17 -16 -13 -17
-12 -4 4 13 16 21 21 21 13z m60 -19 c0 -2 -9 -12 -20 -22 -24 -21 -27 -14 -4
9 15 15 24 20 24 13z m380 -27 c-26 -37 -37 -43 -46 -29 -4 7 -3 9 4 5 6 -3
20 7 32 24 12 16 24 30 26 30 3 0 -4 -13 -16 -30z m-110 -25 c-7 -8 -17 -15
-23 -15 -6 0 -2 7 9 15 25 19 30 19 14 0z m40 -39 c0 -2 -8 -10 -17 -17 -16
-13 -17 -12 -4 4 13 16 21 21 21 13z m-510 -29 c0 -2 -15 -16 -32 -33 l-33
-29 29 33 c28 30 36 37 36 29z m380 -20 c0 -2 -10 -12 -22 -23 l-23 -19 19 23
c18 21 26 27 26 19z m-340 -20 c0 -2 -10 -12 -22 -23 l-23 -19 19 23 c18 21
26 27 26 19z m350 -41 c0 -2 -8 -10 -17 -17 -16 -13 -17 -12 -4 4 13 16 21 21
21 13z m-435 -35 c3 -5 2 -12 -3 -15 -5 -3 -9 1 -9 9 0 17 3 19 12 6z m394
-22 c-13 -26 -26 -31 -32 -14 -4 10 -1 12 10 8 12 -5 15 -2 11 9 -4 8 -1 15 7
15 10 0 11 -5 4 -18z m-76 -74 c-3 -9 -8 -14 -10 -11 -3 3 -2 9 2 15 9 16 15
13 8 -4z m-497 -17 c4 -7 3 -8 -4 -4 -7 4 -12 0 -12 -10 0 -10 -3 -15 -6 -11
-7 6 2 37 10 37 3 0 8 -5 12 -12z m384 -12 c0 -2 -8 -10 -17 -17 -16 -13 -17
-12 -4 4 13 16 21 21 21 13z m-420 -20 c0 -2 -8 -10 -17 -17 -16 -13 -17 -12
-4 4 13 16 21 21 21 13z m470 -10 c0 -2 -8 -10 -17 -17 -16 -13 -17 -12 -4 4
13 16 21 21 21 13z m-130 -50 c0 -2 -8 -10 -17 -17 -16 -13 -17 -12 -4 4 13
16 21 21 21 13z m-383 -32 c-6 -6 -47 9 -47 17 0 5 11 3 25 -3 14 -6 24 -13
22 -14z m318 -44 c-3 -5 -12 -10 -18 -10 -7 0 -6 4 3 10 19 12 23 12 15 0z
m10 -70 c-10 -11 -20 -18 -22 -16 -6 5 30 44 36 39 2 -1 -4 -12 -14 -23z m-75
-74 c0 -2 -7 -7 -16 -10 -8 -3 -12 -2 -9 4 6 10 25 14 25 6z m-36 -38 c-3 -4
-9 -8 -15 -8 -5 0 -9 4 -9 8 0 5 7 9 15 9 8 0 12 -4 9 -9z"/>
<path d="M3620 6230 c0 -5 5 -10 11 -10 5 0 7 5 4 10 -3 6 -8 10 -11 10 -2 0
-4 -4 -4 -10z"/>
<path d="M2236 4302 c-3 -3 -6 -439 -6 -969 0 -769 3 -963 13 -957 6 4 -14
-16 -46 -46 -67 -61 -104 -126 -115 -202 l-7 -53 -265 -5 c-189 -4 -271 -9
-287 -18 -44 -25 -53 -60 -53 -217 0 -134 -6 -166 -26 -133 -4 7 -3 8 4 4 7
-4 12 -2 12 3 0 6 -15 12 -32 12 l-33 2 35 8 c22 5 -9 6 -81 4 -133 -6 -209
-15 -209 -25 0 -4 32 -11 70 -14 86 -9 2367 -9 2406 -1 83 18 82 17 44 26 -51
11 -297 22 -284 12 9 -6 8 -11 -2 -21 -12 -11 -14 8 -14 128 0 199 -21 230
-155 230 l-65 0 0 63 c0 36 -5 68 -12 75 -16 16 -200 16 -216 0 -7 -7 -12 -39
-12 -75 l0 -63 -75 0 -75 0 0 35 c0 91 -77 209 -174 267 -28 16 -43 27 -33 24
10 -3 17 0 17 7 0 7 5 4 11 -5 5 -10 18 -22 29 -28 51 -27 944 -72 2020 -101
613 -16 3120 -23 3895 -10 773 13 1511 34 1960 56 355 18 392 21 392 41 0 8
-6 14 -14 14 -7 0 -13 8 -12 18 0 10 3 12 6 5 11 -30 23 -9 23 42 0 30 -4 55
-10 55 -5 0 -7 -7 -4 -15 4 -8 1 -15 -6 -15 -6 0 -8 5 -4 11 4 8 -1 9 -17 5
l-24 -6 23 11 c12 7 22 16 22 21 0 5 4 7 8 4 5 -3 9 1 9 9 0 10 -8 9 -29 -7
-72 -51 158 -48 -3934 -48 -3370 0 -3818 2 -3858 15 -24 8 -52 12 -63 9 -14
-4 -15 -4 -4 4 11 8 9 13 -11 26 -22 14 -42 15 -179 6 -85 -6 -161 -12 -169
-13 -13 -2 -16 106 -20 900 l-5 903 -29 -15 c-15 -8 -35 -15 -42 -15 -12 0
-14 -139 -14 -894 l0 -893 -57 -6 c-32 -4 -75 -10 -95 -13 l-38 -7 0 904 0
904 -39 16 c-22 10 -42 14 -45 11z m477 -1809 c-7 -2 -21 -2 -30 0 -10 3 -4 5
12 5 17 0 24 -2 18 -5z m8105 -44 c-8 -4 -25 -5 -38 -2 -22 6 -22 7 -5 13 11
4 28 5 38 2 16 -4 17 -6 5 -13z m-7751 5 c-3 -3 -12 -4 -19 -1 -8 3 -5 6 6 6
11 1 17 -2 13 -5z m-563 -43 c11 -4 -21 -5 -70 -3 -67 3 -99 0 -128 -12 -28
-11 -43 -13 -55 -5 -13 8 -11 9 8 3 13 -3 21 -2 18 3 -3 5 2 9 11 10 44 3 107
21 105 30 -2 9 52 -4 111 -26z m-14 29 c-8 -5 -19 -10 -25 -10 -5 0 -3 5 5 10
8 5 20 10 25 10 6 0 3 -5 -5 -10z m565 0 c6 2 1720 4 3810 4 l3800 1 -3780 -5
c-2780 -4 -3775 -8 -3761 -16 12 -8 15 -14 7 -18 -6 -4 -11 -3 -11 2 0 6 -10
8 -22 5 -19 -4 -20 -3 -8 7 12 9 8 10 -17 5 -24 -5 -37 -2 -50 11 -17 17 -17
18 2 10 11 -5 25 -7 30 -6z m7680 0 c13 -5 14 -9 5 -9 -8 0 -24 4 -35 9 -13 5
-14 9 -5 9 8 0 24 -4 35 -9z m-7730 -10 c3 -5 2 -10 -4 -10 -5 0 -13 5 -16 10
-3 6 -2 10 4 10 5 0 13 -4 16 -10z m7825 -10 c0 -11 -4 -20 -9 -20 -7 0 -8 17
-2 38 4 10 11 -2 11 -18z m-8033 -16 c-3 -3 -12 -4 -19 -1 -8 3 -5 6 6 6 11 1
17 -2 13 -5z m110 -10 c-3 -3 -12 -4 -19 -1 -8 3 -5 6 6 6 11 1 17 -2 13 -5z
m58 -4 c-4 -6 6 -11 22 -11 l28 -1 -30 -8 c-16 -4 -39 -8 -50 -8 -16 0 -15 2
5 8 21 7 22 8 5 10 l-20 1 20 9 c27 11 27 11 20 0z m62 4 c-3 -3 -12 -4 -19
-1 -8 3 -5 6 6 6 11 1 17 -2 13 -5z m7720 0 c-3 -3 -12 -4 -19 -1 -8 3 -5 6 6
6 11 1 17 -2 13 -5z m-8103 -12 c3 -5 -1 -9 -9 -9 -8 0 -15 4 -15 9 0 4 4 8 9
8 6 0 12 -4 15 -8z m8183 2 c-3 -3 -12 -4 -19 -1 -8 3 -5 6 6 6 11 1 17 -2 13
-5z m-64 -11 c-7 -2 -19 -2 -25 0 -7 3 -2 5 12 5 14 0 19 -2 13 -5z m-7980
-10 c-13 -2 -33 -2 -45 0 -13 2 -3 4 22 4 25 0 35 -2 23 -4z m120 -10 c-7 -2
-21 -2 -30 0 -10 3 -4 5 12 5 17 0 24 -2 18 -5z m141 -2 c3 -4 -6 -6 -19 -3
-14 2 -25 6 -25 8 0 8 39 4 44 -5z m7753 3 c-3 -3 -12 -4 -19 -1 -8 3 -5 6 6
6 11 1 17 -2 13 -5z m-7576 -22 c-7 -2 -18 1 -23 6 -8 8 -4 9 13 5 13 -4 18
-8 10 -11z m1046 -8 c-3 -3 -12 -4 -19 -1 -8 3 -5 6 6 6 11 1 17 -2 13 -5z
m1612 -10 c2 -2 -12 -4 -33 -4 -22 0 -35 4 -31 10 5 9 52 4 64 -6z m2758 10
c-3 -3 -12 -4 -19 -1 -8 3 -5 6 6 6 11 1 17 -2 13 -5z m116 -1 c-7 -2 -19 -2
-25 0 -7 3 -2 5 12 5 14 0 19 -2 13 -5z m697 -3 c-8 -5 -28 -9 -45 -9 -30 2
-30 2 5 9 51 11 57 11 40 0z m137 4 c-3 -3 -12 -4 -19 -1 -8 3 -5 6 6 6 11 1
17 -2 13 -5z m246 -1 c-7 -2 -19 -2 -25 0 -7 3 -2 5 12 5 14 0 19 -2 13 -5z
m-5898 -13 c-11 -5 -27 -9 -35 -9 -9 0 -8 4 5 9 11 5 27 9 35 9 9 0 8 -4 -5
-9z m782 4 c-3 -3 -12 -4 -19 -1 -8 3 -5 6 6 6 11 1 17 -2 13 -5z m4430 0 c-3
-3 -12 -4 -19 -1 -8 3 -5 6 6 6 11 1 17 -2 13 -5z m510 0 c-3 -3 -12 -4 -19
-1 -8 3 -5 6 6 6 11 1 17 -2 13 -5z m451 -1 c-10 -2 -28 -2 -40 0 -13 2 -5 4
17 4 22 1 32 -1 23 -4z m-5825 -10 c-7 -2 -21 -2 -30 0 -10 3 -4 5 12 5 17 0
24 -2 18 -5z m674 1 c-3 -3 -12 -4 -19 -1 -8 3 -5 6 6 6 11 1 17 -2 13 -5z
m720 0 c-3 -3 -12 -4 -19 -1 -8 3 -5 6 6 6 11 1 17 -2 13 -5z m2583 2 c0 -3
-4 -8 -10 -11 -5 -3 -10 -1 -10 4 0 6 5 11 10 11 6 0 10 -2 10 -4z m327 -2
c-3 -3 -12 -4 -19 -1 -8 3 -5 6 6 6 11 1 17 -2 13 -5z m320 0 c-3 -3 -12 -4
-19 -1 -8 3 -5 6 6 6 11 1 17 -2 13 -5z m800 0 c-3 -3 -12 -4 -19 -1 -8 3 -5
6 6 6 11 1 17 -2 13 -5z m166 -1 c-13 -2 -35 -2 -50 0 -16 2 -5 4 22 4 28 0
40 -2 28 -4z m-5480 -10 c-7 -2 -19 -2 -25 0 -7 3 -2 5 12 5 14 0 19 -2 13 -5z
m760 0 c-7 -2 -19 -2 -25 0 -7 3 -2 5 12 5 14 0 19 -2 13 -5z m670 0 c-13 -2
-33 -2 -45 0 -13 2 -3 4 22 4 25 0 35 -2 23 -4z m174 1 c-3 -3 -12 -4 -19 -1
-8 3 -5 6 6 6 11 1 17 -2 13 -5z m1726 -1 c-24 -2 -62 -2 -85 0 -24 2 -5 4 42
4 47 0 66 -2 43 -4z m240 0 c-24 -2 -62 -2 -85 0 -24 2 -5 4 42 4 47 0 66 -2
43 -4z m100 0 c-7 -2 -19 -2 -25 0 -7 3 -2 5 12 5 14 0 19 -2 13 -5z m414 1
c-3 -3 -12 -4 -19 -1 -8 3 -5 6 6 6 11 1 17 -2 13 -5z m916 -1 c-7 -2 -19 -2
-25 0 -7 3 -2 5 12 5 14 0 19 -2 13 -5z m80 0 c-7 -2 -19 -2 -25 0 -7 3 -2 5
12 5 14 0 19 -2 13 -5z m-4756 -9 c-3 -3 -12 -4 -19 -1 -8 3 -5 6 6 6 11 1 17
-2 13 -5z m96 -1 c-13 -2 -33 -2 -45 0 -13 2 -3 4 22 4 25 0 35 -2 23 -4z
m220 0 c-7 -2 -21 -2 -30 0 -10 3 -4 5 12 5 17 0 24 -2 18 -5z m234 1 c-3 -3
-12 -4 -19 -1 -8 3 -5 6 6 6 11 1 17 -2 13 -5z m1276 -1 c-13 -2 -33 -2 -45 0
-13 2 -3 4 22 4 25 0 35 -2 23 -4z m2400 0 c-13 -2 -33 -2 -45 0 -13 2 -3 4
22 4 25 0 35 -2 23 -4z m-3826 -9 c-3 -3 -12 -4 -19 -1 -8 3 -5 6 6 6 11 1 17
-2 13 -5z m80 0 c-3 -3 -12 -4 -19 -1 -8 3 -5 6 6 6 11 1 17 -2 13 -5z m631
-1 c-10 -2 -26 -2 -35 0 -10 3 -2 5 17 5 19 0 27 -2 18 -5z m2615 0 c-7 -2
-21 -2 -30 0 -10 3 -4 5 12 5 17 0 24 -2 18 -5z m-1100 -10 c-13 -2 -33 -2
-45 0 -13 2 -3 4 22 4 25 0 35 -2 23 -4z m364 1 c-3 -3 -12 -4 -19 -1 -8 3 -5
6 6 6 11 1 17 -2 13 -5z m80 0 c-3 -3 -12 -4 -19 -1 -8 3 -5 6 6 6 11 1 17 -2
13 -5z m-4819 -181 c-10 -2 -28 -2 -40 0 -13 2 -5 4 17 4 22 1 32 -1 23 -4z
m80 0 c-10 -2 -26 -2 -35 0 -10 3 -2 5 17 5 19 0 27 -2 18 -5z m75 0 c-7 -2
-19 -2 -25 0 -7 3 -2 5 12 5 14 0 19 -2 13 -5z m-1870 -370 c-7 -2 -19 -2 -25
0 -7 3 -2 5 12 5 14 0 19 -2 13 -5z m2184 1 c-3 -3 -12 -4 -19 -1 -8 3 -5 6 6
6 11 1 17 -2 13 -5z"/>
<path d="M10900 2920 c-20 -20 -20 -30 -18 -610 3 -576 3 -589 23 -604 16 -12
53 -15 181 -16 140 0 165 2 183 18 l22 17 0 588 c1 547 0 590 -17 608 -16 17
-32 19 -186 19 -155 0 -170 -2 -188 -20z"/>
<path d="M11310 2435 c0 -65 1 -65 122 -40 95 20 108 24 108 36 0 17 -45 30
-197 55 l-33 5 0 -56z m123 8 c-7 -2 -19 -2 -25 0 -7 3 -2 5 12 5 14 0 19 -2
13 -5z m54 1 c-3 -3 -12 -4 -19 -1 -8 3 -5 6 6 6 11 1 17 -2 13 -5z m-70 -20
c-3 -3 -12 -4 -19 -1 -8 3 -5 6 6 6 11 1 17 -2 13 -5z m-77 -19 c0 -8 -4 -15
-10 -15 -5 0 -7 7 -4 15 4 8 8 15 10 15 2 0 4 -7 4 -15z"/>
<path d="M10670 1720 c-124 -7 -75 -19 98 -22 98 -2 121 0 117 10 -3 8 -5 16
-5 18 0 5 -72 3 -210 -6z"/>
<path d="M11293 1715 c-17 -19 -16 -25 2 -25 8 0 15 8 16 18 0 10 3 12 6 5 3
-10 38 -13 126 -12 174 1 200 15 42 21 -87 3 -132 1 -137 -6 -5 -7 -8 -7 -8 2
0 16 -32 15 -47 -3z"/>
<path d="M1977 1667 c257 -6 576 -6 850 0 430 9 423 10 -412 10 -816 0 -834
-1 -438 -10z"/>
</g>
</svg>
